<svg width="24" height="24" viewBox="0 0 24 24" fill="none" xmlns="http://www.w3.org/2000/svg">
  <path d="M4 10C4 15.5228 8.47715 20 14 20C19.5228 20 24 15.5228 24 10H4Z" fill="#F5C76A"/>
  <path d="M2 12.5C2 17.1944 5.80558 21 10.5 21C15.1944 21 19 17.1944 19 12.5H2Z" stroke="#1F1F1F" stroke-width="1.5" stroke-linecap="round"/>
  <path d="M7 4C7 5.33333 6.6 6 5.8 7C5 8 5 8.66667 5 10" stroke="#1F1F1F" stroke-width="1.5" stroke-linecap="round"/>
  <path d="M11 4C11 5.33333 10.6 6 9.8 7C9 8 9 8.66667 9 10" stroke="#1F1F1F" stroke-width="1.5" stroke-linecap="round"/>
  <path d="M15 4C15 5.33333 14.6 6 13.8 7C13 8 13 8.66667 13 10" stroke="#1F1F1F" stroke-width="1.5" stroke-linecap="round"/>
</svg>

